<?xml version="1.0" encoding="utf-8"?>
<!-- Generator: Adobe Illustrator 21.1.0, SVG Export Plug-In . SVG Version: 6.00 Build 0)  -->
<svg version="1.1" id="Layer_1" xmlns="http://www.w3.org/2000/svg" xmlns:xlink="http://www.w3.org/1999/xlink" x="0px" y="0px"
	 width="30px" height="13.3px" viewBox="0 0 30 13.3" style="enable-background:new 0 0 30 13.3;" xml:space="preserve">
<style type="text/css">
	.st0{fill:#FFFFFF;}
</style>
<path class="st0" d="M0,4.8c0.1-0.3,0.4-0.4,0.7-0.4c7.1,0,14.1,0,21.2,0c0.3,0,0.3,0,0.3-0.3c0-1.1,0-2.3,0-3.4
	c0-0.3,0-0.5,0.3-0.6c0.3-0.1,0.5,0,0.7,0.2c1.7,1.5,3.4,3.1,5.1,4.6c0.5,0.4,0.9,0.8,1.4,1.3c0.1,0.1,0.2,0.2,0.3,0.4
	c0,0.1,0,0.2,0,0.3c-0.3,0.3-0.6,0.6-0.9,0.9c-1,0.9-2,1.9-3,2.8c-1,0.9-1.9,1.8-2.9,2.7c-0.2,0.2-0.4,0.2-0.6,0.1
	c-0.2-0.1-0.3-0.3-0.3-0.5c0-1.2,0-2.3,0-3.5c0-0.4,0-0.4-0.4-0.4c-7,0-14.1,0-21.1,0C0.4,8.9,0.1,8.8,0,8.5C0,7.3,0,6,0,4.8z"/>
</svg>
